<mxfile host="app.diagrams.net" modified="2022-12-02T04:22:54.300Z" agent="5.0 (Windows NT 10.0; Win64; x64) AppleWebKit/537.36 (KHTML, like Gecko) Chrome/107.0.0.0 Safari/537.36" etag="gPmEKIj0hPVddWO6QGVX" version="20.5.1" type="github" pages="2">
  <diagram id="MN1tpE6yu0p90DHYZf7P" name="인라인 네트워크 레이드 아키텍처">
    <mxGraphModel dx="1422" dy="762" grid="1" gridSize="10" guides="1" tooltips="1" connect="1" arrows="1" fold="1" page="1" pageScale="1" pageWidth="827" pageHeight="1169" math="0" shadow="0">
      <root>
        <mxCell id="0" />
        <mxCell id="1" parent="0" />
        <mxCell id="2T-RvHpUOafos7GOEmiL-6" value="" style="rounded=0;whiteSpace=wrap;html=1;fillColor=#FFFFFF;" vertex="1" parent="1">
          <mxGeometry x="45" y="338" width="530" height="290" as="geometry" />
        </mxCell>
        <mxCell id="2T-RvHpUOafos7GOEmiL-23" value="" style="rounded=1;whiteSpace=wrap;html=1;fillColor=#FFFFFF;dashed=1;arcSize=7;" vertex="1" parent="1">
          <mxGeometry x="160" y="403" width="400" height="210" as="geometry" />
        </mxCell>
        <mxCell id="2T-RvHpUOafos7GOEmiL-3" value="&lt;b style=&quot;font-size: 15px;&quot;&gt;&lt;font style=&quot;font-size: 15px;&quot; color=&quot;#808080&quot;&gt;&lt;br&gt;&lt;/font&gt;&lt;/b&gt;" style="rounded=0;whiteSpace=wrap;html=1;fillColor=#d5e8d4;strokeColor=#82b366;align=left;" vertex="1" parent="1">
          <mxGeometry x="240" y="210" width="110" height="70" as="geometry" />
        </mxCell>
        <mxCell id="2T-RvHpUOafos7GOEmiL-5" value="" style="rounded=1;whiteSpace=wrap;html=1;fillColor=#FFFFFF;dashed=1;" vertex="1" parent="1">
          <mxGeometry x="60" y="350" width="80" height="260" as="geometry" />
        </mxCell>
        <mxCell id="yECEQW9LtqZ5MZvgmVVH-2" value="" style="shape=cylinder3;whiteSpace=wrap;html=1;boundedLbl=1;backgroundOutline=1;size=15;fillColor=#f5f5f5;strokeColor=#666666;fontColor=#333333;" vertex="1" parent="1">
          <mxGeometry x="70" y="520" width="60" height="80" as="geometry" />
        </mxCell>
        <mxCell id="yECEQW9LtqZ5MZvgmVVH-3" value="" style="shape=cylinder3;whiteSpace=wrap;html=1;boundedLbl=1;backgroundOutline=1;size=15;fillColor=#f5f5f5;strokeColor=#666666;fontColor=#333333;" vertex="1" parent="1">
          <mxGeometry x="170" y="520" width="60" height="80" as="geometry" />
        </mxCell>
        <mxCell id="yECEQW9LtqZ5MZvgmVVH-4" value="" style="shape=cylinder3;whiteSpace=wrap;html=1;boundedLbl=1;backgroundOutline=1;size=15;fillColor=#f5f5f5;strokeColor=#666666;fontColor=#333333;" vertex="1" parent="1">
          <mxGeometry x="250" y="520" width="60" height="80" as="geometry" />
        </mxCell>
        <mxCell id="yECEQW9LtqZ5MZvgmVVH-5" value="" style="shape=cylinder3;whiteSpace=wrap;html=1;boundedLbl=1;backgroundOutline=1;size=15;fillColor=#f5f5f5;strokeColor=#666666;fontColor=#333333;" vertex="1" parent="1">
          <mxGeometry x="330" y="520" width="60" height="80" as="geometry" />
        </mxCell>
        <mxCell id="yECEQW9LtqZ5MZvgmVVH-6" value="" style="shape=cylinder3;whiteSpace=wrap;html=1;boundedLbl=1;backgroundOutline=1;size=15;fillColor=#f5f5f5;strokeColor=#666666;fontColor=#333333;" vertex="1" parent="1">
          <mxGeometry x="410" y="520" width="60" height="80" as="geometry" />
        </mxCell>
        <mxCell id="yECEQW9LtqZ5MZvgmVVH-7" value="" style="shape=cylinder3;whiteSpace=wrap;html=1;boundedLbl=1;backgroundOutline=1;size=15;fillColor=#f5f5f5;strokeColor=#666666;fontColor=#333333;" vertex="1" parent="1">
          <mxGeometry x="490" y="520" width="60" height="80" as="geometry" />
        </mxCell>
        <mxCell id="yECEQW9LtqZ5MZvgmVVH-8" value="pool" style="rounded=1;whiteSpace=wrap;html=1;fillColor=#fff2cc;strokeColor=#d6b656;fontStyle=1" vertex="1" parent="1">
          <mxGeometry x="170" y="470" width="60" height="30" as="geometry" />
        </mxCell>
        <mxCell id="yECEQW9LtqZ5MZvgmVVH-9" value="pool" style="rounded=1;whiteSpace=wrap;html=1;fillColor=#fff2cc;strokeColor=#d6b656;fontStyle=1" vertex="1" parent="1">
          <mxGeometry x="250" y="470" width="60" height="30" as="geometry" />
        </mxCell>
        <mxCell id="yECEQW9LtqZ5MZvgmVVH-10" value="pool" style="rounded=1;whiteSpace=wrap;html=1;fillColor=#fff2cc;strokeColor=#d6b656;fontStyle=1" vertex="1" parent="1">
          <mxGeometry x="330" y="470" width="60" height="30" as="geometry" />
        </mxCell>
        <mxCell id="yECEQW9LtqZ5MZvgmVVH-11" value="pool" style="rounded=1;whiteSpace=wrap;html=1;fillColor=#fff2cc;strokeColor=#d6b656;fontStyle=1" vertex="1" parent="1">
          <mxGeometry x="410" y="470" width="60" height="30" as="geometry" />
        </mxCell>
        <mxCell id="yECEQW9LtqZ5MZvgmVVH-12" value="pool" style="rounded=1;whiteSpace=wrap;html=1;fillColor=#fff2cc;strokeColor=#d6b656;fontStyle=1" vertex="1" parent="1">
          <mxGeometry x="490" y="470" width="60" height="30" as="geometry" />
        </mxCell>
        <mxCell id="yECEQW9LtqZ5MZvgmVVH-13" value="&lt;b&gt;RAID&lt;/b&gt;" style="rounded=0;whiteSpace=wrap;html=1;fillColor=#e1d5e7;strokeColor=#9673a6;" vertex="1" parent="1">
          <mxGeometry x="170" y="416" width="380" height="40" as="geometry" />
        </mxCell>
        <mxCell id="2T-RvHpUOafos7GOEmiL-19" style="edgeStyle=orthogonalEdgeStyle;shape=link;rounded=0;orthogonalLoop=1;jettySize=auto;html=1;exitX=0.5;exitY=0;exitDx=0;exitDy=0;entryX=0.5;entryY=1;entryDx=0;entryDy=0;strokeWidth=1;fontSize=12;fontColor=#808080;endArrow=classicThin;endFill=1;elbow=vertical;" edge="1" parent="1" source="yECEQW9LtqZ5MZvgmVVH-15" target="yECEQW9LtqZ5MZvgmVVH-24">
          <mxGeometry relative="1" as="geometry">
            <Array as="points">
              <mxPoint x="360" y="310" />
              <mxPoint x="295" y="310" />
            </Array>
          </mxGeometry>
        </mxCell>
        <mxCell id="2T-RvHpUOafos7GOEmiL-26" style="edgeStyle=orthogonalEdgeStyle;rounded=0;orthogonalLoop=1;jettySize=auto;html=1;exitX=0.5;exitY=1;exitDx=0;exitDy=0;entryX=0.5;entryY=0;entryDx=0;entryDy=0;strokeWidth=1;fontSize=15;fontColor=#808080;startArrow=classic;startFill=0;endArrow=classicThin;endFill=1;elbow=vertical;shape=link;" edge="1" parent="1" source="yECEQW9LtqZ5MZvgmVVH-15" target="2T-RvHpUOafos7GOEmiL-23">
          <mxGeometry relative="1" as="geometry" />
        </mxCell>
        <mxCell id="yECEQW9LtqZ5MZvgmVVH-15" value="&lt;b&gt;Target&lt;/b&gt;" style="rounded=0;whiteSpace=wrap;html=1;" vertex="1" parent="1">
          <mxGeometry x="170" y="350" width="380" height="40" as="geometry" />
        </mxCell>
        <mxCell id="yECEQW9LtqZ5MZvgmVVH-16" value="Meta&lt;br&gt;Data" style="rounded=0;whiteSpace=wrap;html=1;fontStyle=1" vertex="1" parent="1">
          <mxGeometry x="70" y="360" width="60" height="96" as="geometry" />
        </mxCell>
        <mxCell id="yECEQW9LtqZ5MZvgmVVH-17" value="pool" style="rounded=1;whiteSpace=wrap;html=1;fillColor=#fff2cc;strokeColor=#d6b656;fontStyle=1" vertex="1" parent="1">
          <mxGeometry x="70" y="470" width="60" height="30" as="geometry" />
        </mxCell>
        <mxCell id="yECEQW9LtqZ5MZvgmVVH-24" value="Directory" style="rounded=0;whiteSpace=wrap;html=1;fillColor=#fff2cc;strokeColor=#d6b656;" vertex="1" parent="1">
          <mxGeometry x="255" y="240" width="80" height="31" as="geometry" />
        </mxCell>
        <mxCell id="2T-RvHpUOafos7GOEmiL-18" value="&lt;b&gt;&lt;font style=&quot;font-size: 12px;&quot;&gt;Infiniband / Ethernet Network (RDMA/TCP/FC)&lt;/font&gt;&lt;/b&gt;" style="rounded=0;whiteSpace=wrap;html=1;fontSize=16;fillColor=#ffff88;strokeColor=#36393d;" vertex="1" parent="1">
          <mxGeometry x="50" y="300" width="520" height="20" as="geometry" />
        </mxCell>
        <mxCell id="2T-RvHpUOafos7GOEmiL-27" value="&lt;b&gt;Client&lt;/b&gt;" style="text;html=1;strokeColor=none;fillColor=none;align=center;verticalAlign=middle;whiteSpace=wrap;rounded=0;fontSize=15;fontColor=#808080;" vertex="1" parent="1">
          <mxGeometry x="240" y="210" width="50" height="20" as="geometry" />
        </mxCell>
      </root>
    </mxGraphModel>
  </diagram>
  <diagram id="MpR8PNCuW_9svIk_nZOq" name="EC">
    <mxGraphModel dx="1422" dy="762" grid="1" gridSize="10" guides="1" tooltips="1" connect="1" arrows="1" fold="1" page="1" pageScale="1" pageWidth="827" pageHeight="1169" math="0" shadow="0">
      <root>
        <mxCell id="0" />
        <mxCell id="1" parent="0" />
      </root>
    </mxGraphModel>
  </diagram>
</mxfile>
